# xmcd
#
# Track frame offsets:
#	150
#	20327
#	38907
#	74997
#	95000
#	114100
#	130052
#	148517
#	162675
#	181782
#
# Disc length: 2776 seconds
#
# Revision: 0
# Processed by: cddbd v1.5.2PL0 Copyright (c) Steve Scherf et al.
# Submitted via: EasyCDDAExtractor 16.0.9.1
#
DISCID=8b0ad60a
DTITLE=Khánh Hà, Anh Tú, Thúy Anh - KH43: Cát Bụi Tình Xa
DYEAR=1998
DGENRE=Pop
TTITLE0=Thúy Hà Tú - Cát Bụi Tình Xa
TTITLE1=Khánh Hà - Thiên Tình Ca
TTITLE2=Thúy Hà Tú - Liên Khúc Bee Gees
TTITLE3=Thúy Anh - Yesterday Once More
TTITLE4=Thúy Hà Tú - Có Nhau Trong Đời
TTITLE5=Thúy Hà Tú - Biết Ra Sao Ngày Sau
TTITLE6=Khánh Hà, Anh Tú, Thúy Anh - Hãy Giữ Cho Tôi Một Giấc Mơ
TTITLE7=Khánh Hà - Khi Xưa Đôi Mình
TTITLE8=Thúy Anh - Nụ Hôn Ấy
TTITLE9=Thúy Hà Tú - Liên Khúc: Put Your Head On My Shoulder, You're My World,
TTITLE9=Only Yesterday
EXTD=
EXTT0=
EXTT1=
EXTT2=
EXTT3=
EXTT4=
EXTT5=
EXTT6=
EXTT7=
EXTT8=
EXTT9=
PLAYORDER=
